#tb 0: 1/25
#media_type 0: video
#codec_id 0: rawvideo
#dimensions 0: 416x240
#sar 0: 0/1
0,          0,          0,        1,   149760, 0x8edb27d7
0,          1,          1,        1,   149760, 0xcebf1b76
0,          2,          2,        1,   149760, 0x33930fb0
0,          3,          3,        1,   149760, 0xb2933277
0,          4,          4,        1,   149760, 0x2ff5fd5d
0,          5,          5,        1,   149760, 0x6616a17a
0,          6,          6,        1,   149760, 0x3abc48ad
0,          7,          7,        1,   149760, 0xc12491ef
